<?xml version="1.0" encoding="UTF-8"?>
<svg id="Capa_1" data-name="Capa 1" xmlns="http://www.w3.org/2000/svg" viewBox="0 0 1400 290">
  <defs>
    <style>
      .cls-1 {
        fill: #8fa88b;
      }

      .cls-2 {
        letter-spacing: -.01em;
      }

      .cls-3 {
        font-family: Montserrat-Bold, Montserrat;
        font-size: 250px;
        font-weight: 700;
      }

      .cls-3, .cls-4 {
        fill: #4a433e;
      }

      .cls-5 {
        letter-spacing: 0em;
      }
    </style>
  </defs>
  <path class="cls-1" d="M212.41,205.32c.6,30.17-31.07,36.75-31.07,36.75.3-24.95,31.07-36.75,31.07-36.75Z"/>
  <path class="cls-1" d="M236.06,182.58c11.42,27.94-15.76,45.47-15.76,45.47-8.7-23.38,15.76-45.47,15.76-45.47Z"/>
  <path class="cls-1" d="M285,208c-21.69,35.63-56.36,24.5-56.36,24.5,18.68-28.99,56.36-24.5,56.36-24.5Z"/>
  <path class="cls-1" d="M247.61,248.16c-32.97,25.55-61.39,2.78-61.39,2.78,27.79-20.42,61.39-2.78,61.39-2.78Z"/>
  <path class="cls-1" d="M305.17,159.8c-8.91,40.75-45.31,41.51-45.31,41.51,8.22-33.49,45.31-41.51,45.31-41.51Z"/>
  <path class="cls-1" d="M303.37,102.72c9.67,40.57-22.79,57.07-22.79,57.07-7.14-33.74,22.79-57.07,22.79-57.07Z"/>
  <path class="cls-1" d="M280.33,57.62c21.41,34.75-.85,58.37-.85,58.37-17.03-29.13.85-58.37.85-58.37Z"/>
  <path class="cls-1" d="M243.06,19.42c33.52,26.19,21.82,55.55,21.82,55.55-27.24-22.24-21.82-55.55-21.82-55.55Z"/>
  <path class="cls-1" d="M190.39,13.48c42.37,3.74,48.53,34.73,48.53,34.73-34.95-3.84-48.53-34.73-48.53-34.73Z"/>
  <path class="cls-1" d="M236.24,84.24c30.16,1.05,34.99,33.03,34.99,33.03-24.89-1.66-34.99-33.03-34.99-33.03Z"/>
  <path class="cls-1" d="M210.77,55.35c29.21-8.27,43.97,22.1,43.97,22.1-24.35,6.04-43.97-22.1-43.97-22.1Z"/>
  <path class="cls-1" d="M245.82,116.99c28.53,9.4,23.69,42.8,23.69,42.8-23.31-8.55-23.69-42.8-23.69-42.8Z"/>
  <path class="cls-1" d="M248.2,149.81c22.37,20.06,4.53,48.71,4.53,48.71-17.92-17.19-4.53-48.71-4.53-48.71Z"/>
  <path class="cls-1" d="M130.26,269.55s1.11-9.67,27.19-18.86,83.89-7.28,112.38-83.91c28.48-76.63-55.16-138.62-55.16-138.62,0,0,66.71,42.87,66.22,97.1-.49,54.22-27.98,116.37-116.26,129.96-23.6,7.77-20.61,12.85-25.69,19.72-5.08,6.87-8.66-5.38-8.66-5.38Z"/>
  <polygon class="cls-4" points="159.61 59.98 97.57 81.19 159.61 102.72 221.55 81.79 159.61 59.98"/>
  <path class="cls-4" d="M125.35,96.73l34.21,11.65,34.21-11.65v20.55c-14.04,2.19-26.59,11.27-34.21,15.9,0,0-13.59-12.25-34.21-17.19v-19.26Z"/>
  <path class="cls-4" d="M214.66,178.89c1.3.06,0-39.44,0-39.44h9.58v47.8c-30.47-6.7-64.68,15.83-64.68,15.83v-4.57s15.49-21.42,55.1-19.63Z"/>
  <path class="cls-4" d="M162.1,149.81c15.54-21.41,48.67-18.55,48.67-18.55v42.9s-32.84-.24-48.67,16.68v-41.03Z"/>
  <polygon class="cls-4" points="205.57 82.69 205.57 112.56 203.03 123.91 214.66 123.91 211.49 112.56 210.77 82.69 205.57 82.69"/>
  <circle class="cls-4" cx="208.63" cy="104.36" r="5.6"/>
  <path class="cls-1" d="M107.9,204.82c-.59,30.17,30.5,36.75,30.5,36.75-.29-24.95-30.5-36.75-30.5-36.75Z"/>
  <path class="cls-1" d="M84.69,182.08c-11.21,27.94,15.47,45.47,15.47,45.47,8.54-23.38-15.47-45.47-15.47-45.47Z"/>
  <path class="cls-1" d="M36.65,207.5c21.29,35.63,55.32,24.5,55.32,24.5-18.33-28.99-55.32-24.5-55.32-24.5Z"/>
  <path class="cls-1" d="M73.36,247.66c32.36,25.55,60.26,2.78,60.26,2.78-27.27-20.42-60.26-2.78-60.26-2.78Z"/>
  <path class="cls-1" d="M16.86,159.3c8.74,40.75,44.48,41.51,44.48,41.51-8.07-33.49-44.48-41.51-44.48-41.51Z"/>
  <path class="cls-1" d="M18.63,102.22c-9.49,40.57,22.37,57.07,22.37,57.07,7-33.74-22.37-57.07-22.37-57.07Z"/>
  <path class="cls-1" d="M41.25,57.12c-21.01,34.75.83,58.37.83,58.37,16.71-29.13-.83-58.37-.83-58.37Z"/>
  <path class="cls-1" d="M77.82,18.92c-32.9,26.19-21.42,55.55-21.42,55.55,26.73-22.24,21.42-55.55,21.42-55.55Z"/>
  <path class="cls-1" d="M129.52,12.98c-41.59,3.74-47.63,34.73-47.63,34.73,34.31-3.84,47.63-34.73,47.63-34.73Z"/>
  <path class="cls-1" d="M84.51,83.74c-29.6,1.05-34.34,33.03-34.34,33.03,24.43-1.66,34.34-33.03,34.34-33.03Z"/>
  <path class="cls-1" d="M109.51,54.85c-28.67-8.27-43.15,22.1-43.15,22.1,23.9,6.04,43.15-22.1,43.15-22.1Z"/>
  <path class="cls-1" d="M75.11,116.49c-28,9.4-23.25,42.8-23.25,42.8,22.88-8.55,23.25-42.8,23.25-42.8Z"/>
  <path class="cls-1" d="M72.78,149.31c-21.95,20.06-4.45,48.71-4.45,48.71,17.59-17.19,4.45-48.71,4.45-48.71Z"/>
  <path class="cls-1" d="M188.54,269.05s-1.09-9.67-26.68-18.86c-25.59-9.2-82.34-7.28-110.3-83.91C23.6,89.65,105.7,27.65,105.7,27.65c0,0-65.48,42.87-64.99,97.1.48,54.22,27.46,116.37,114.11,129.96,23.17,7.77,20.23,12.85,25.22,19.72,4.98,6.87,8.5-5.38,8.5-5.38Z"/>
  <path class="cls-4" d="M105.7,178.39c-1.27.06,0-39.44,0-39.44h-9.41v47.8c29.91-6.7,63.48,15.83,63.48,15.83v-4.57s-15.2-21.42-54.08-19.63Z"/>
  <path class="cls-4" d="M157.28,149.31c-15.25-21.41-47.77-18.55-47.77-18.55v42.9s32.23-.24,47.77,16.68v-41.03Z"/>
  <text class="cls-3" transform="translate(324.72 235.19)"><tspan x="0" y="0">CE</tspan><tspan class="cls-5" x="350.99" y="0">R</tspan><tspan class="cls-2" x="532.24" y="0">T</tspan><tspan x="683.74" y="0">US</tspan></text>
</svg>