<?xml version="1.0" encoding="UTF-8"?>
<svg id="Capa_1" data-name="Capa 1" xmlns="http://www.w3.org/2000/svg" viewBox="0 0 960 300">
  <defs>
    <style>
      .cls-1 {
        font-family: Montserrat-Bold, Montserrat;
        font-size: 135px;
        font-weight: 700;
      }

      .cls-1, .cls-2 {
        fill: #4a433e;
      }

      .cls-3 {
        letter-spacing: -.02em;
      }

      .cls-4 {
        letter-spacing: -.01em;
      }

      .cls-5 {
        fill: #8fa88b;
      }

      .cls-6 {
        fill: #453e2e;
        font-family: Montserrat-SemiBold, Montserrat;
        font-size: 36.5px;
        font-weight: 600;
      }

      .cls-7 {
        letter-spacing: 0em;
      }

      .cls-8 {
        letter-spacing: 0em;
      }

      .cls-9 {
        letter-spacing: -.03em;
      }

      .cls-10 {
        letter-spacing: -.01em;
      }

      .cls-11 {
        letter-spacing: -.05em;
      }
    </style>
  </defs>
  <path class="cls-5" d="M221.73,210.22c.6,30.17-31.07,36.75-31.07,36.75.3-24.95,31.07-36.75,31.07-36.75Z"/>
  <path class="cls-5" d="M245.37,187.48c11.42,27.94-15.76,45.47-15.76,45.47-8.7-23.38,15.76-45.47,15.76-45.47Z"/>
  <path class="cls-5" d="M294.32,212.9c-21.69,35.63-56.36,24.5-56.36,24.5,18.68-28.99,56.36-24.5,56.36-24.5Z"/>
  <path class="cls-5" d="M256.93,253.06c-32.97,25.55-61.39,2.78-61.39,2.78,27.79-20.42,61.39-2.78,61.39-2.78Z"/>
  <path class="cls-5" d="M314.48,164.69c-8.91,40.75-45.31,41.51-45.31,41.51,8.22-33.49,45.31-41.51,45.31-41.51Z"/>
  <path class="cls-5" d="M312.68,107.62c9.67,40.57-22.79,57.07-22.79,57.07-7.14-33.74,22.79-57.07,22.79-57.07Z"/>
  <path class="cls-5" d="M289.64,62.52c21.41,34.75-.85,58.37-.85,58.37-17.03-29.13.85-58.37.85-58.37Z"/>
  <path class="cls-5" d="M252.38,24.32c33.52,26.19,21.82,55.55,21.82,55.55-27.24-22.24-21.82-55.55-21.82-55.55Z"/>
  <path class="cls-5" d="M199.71,18.38c42.37,3.74,48.53,34.73,48.53,34.73-34.95-3.84-48.53-34.73-48.53-34.73Z"/>
  <path class="cls-5" d="M245.56,89.14c30.16,1.05,34.99,33.03,34.99,33.03-24.89-1.66-34.99-33.03-34.99-33.03Z"/>
  <path class="cls-5" d="M220.09,60.25c29.21-8.27,43.97,22.1,43.97,22.1-24.35,6.04-43.97-22.1-43.97-22.1Z"/>
  <path class="cls-5" d="M255.14,121.89c28.53,9.4,23.69,42.8,23.69,42.8-23.31-8.55-23.69-42.8-23.69-42.8Z"/>
  <path class="cls-5" d="M257.52,154.7c22.37,20.06,4.53,48.71,4.53,48.71-17.92-17.19-4.53-48.71-4.53-48.71Z"/>
  <path class="cls-5" d="M139.57,274.45s1.11-9.67,27.19-18.86c26.07-9.2,83.89-7.28,112.38-83.91s-55.16-138.62-55.16-138.62c0,0,66.71,42.87,66.22,97.1s-27.98,116.37-116.26,129.96c-23.6,7.77-20.61,12.85-25.69,19.72s-8.66-5.38-8.66-5.38Z"/>
  <polygon class="cls-2" points="168.93 64.88 106.88 86.09 168.93 107.62 230.87 86.69 168.93 64.88"/>
  <path class="cls-2" d="M134.67,101.63l34.21,11.65,34.21-11.65v20.55c-14.04,2.19-26.59,11.27-34.21,15.9,0,0-13.59-12.25-34.21-17.19v-19.26Z"/>
  <path class="cls-2" d="M223.97,183.78c1.3.06,0-39.44,0-39.44h9.58v47.8c-30.47-6.7-64.68,15.83-64.68,15.83v-4.57s15.49-21.42,55.1-19.63Z"/>
  <path class="cls-2" d="M171.42,154.7c15.54-21.41,48.67-18.55,48.67-18.55v42.9s-32.84-.24-48.67,16.68v-41.03Z"/>
  <polygon class="cls-2" points="214.88 87.58 214.88 117.46 212.34 128.81 223.97 128.81 220.81 117.46 220.09 87.58 214.88 87.58"/>
  <circle class="cls-2" cx="217.95" cy="109.26" r="5.6"/>
  <path class="cls-5" d="M117.22,209.72c-.59,30.17,30.5,36.75,30.5,36.75-.29-24.95-30.5-36.75-30.5-36.75Z"/>
  <path class="cls-5" d="M94.01,186.98c-11.21,27.94,15.47,45.47,15.47,45.47,8.54-23.38-15.47-45.47-15.47-45.47Z"/>
  <path class="cls-5" d="M45.97,212.4c21.29,35.63,55.32,24.5,55.32,24.5-18.33-28.99-55.32-24.5-55.32-24.5Z"/>
  <path class="cls-5" d="M82.67,252.56c32.36,25.55,60.26,2.78,60.26,2.78-27.27-20.42-60.26-2.78-60.26-2.78Z"/>
  <path class="cls-5" d="M26.18,164.19c8.74,40.75,44.48,41.51,44.48,41.51-8.07-33.49-44.48-41.51-44.48-41.51Z"/>
  <path class="cls-5" d="M27.95,107.12c-9.49,40.57,22.37,57.07,22.37,57.07,7-33.74-22.37-57.07-22.37-57.07Z"/>
  <path class="cls-5" d="M50.56,62.02c-21.01,34.75.83,58.37.83,58.37,16.71-29.13-.83-58.37-.83-58.37Z"/>
  <path class="cls-5" d="M87.14,23.82c-32.9,26.19-21.42,55.55-21.42,55.55,26.73-22.24,21.42-55.55,21.42-55.55Z"/>
  <path class="cls-5" d="M138.83,17.88c-41.59,3.74-47.63,34.73-47.63,34.73,34.31-3.84,47.63-34.73,47.63-34.73Z"/>
  <path class="cls-5" d="M93.83,88.64c-29.6,1.05-34.34,33.03-34.34,33.03,24.43-1.66,34.34-33.03,34.34-33.03Z"/>
  <path class="cls-5" d="M118.83,59.75c-28.67-8.27-43.15,22.1-43.15,22.1,23.9,6.04,43.15-22.1,43.15-22.1Z"/>
  <path class="cls-5" d="M84.43,121.39c-28,9.4-23.25,42.8-23.25,42.8,22.88-8.55,23.25-42.8,23.25-42.8Z"/>
  <path class="cls-5" d="M82.09,154.2c-21.95,20.06-4.45,48.71-4.45,48.71,17.59-17.19,4.45-48.71,4.45-48.71Z"/>
  <path class="cls-5" d="M197.85,273.95s-1.09-9.67-26.68-18.86c-25.59-9.2-82.34-7.28-110.3-83.91C32.91,94.55,115.02,32.55,115.02,32.55c0,0-65.48,42.87-64.99,97.1s27.46,116.37,114.11,129.96c23.17,7.77,20.23,12.85,25.22,19.72,4.98,6.87,8.5-5.38,8.5-5.38Z"/>
  <path class="cls-2" d="M115.02,183.28c-1.27.06,0-39.44,0-39.44h-9.41v47.8c29.91-6.7,63.48,15.83,63.48,15.83v-4.57s-15.2-21.42-54.08-19.63Z"/>
  <path class="cls-2" d="M166.6,154.2c-15.25-21.41-47.77-18.55-47.77-18.55v42.9s32.23-.24,47.77,16.68v-41.03Z"/>
  <text class="cls-1" transform="translate(343.49 181.9)"><tspan x="0" y="0">CE</tspan><tspan class="cls-8" x="189.54" y="0">R</tspan><tspan class="cls-10" x="287.41" y="0">T</tspan><tspan x="369.22" y="0">US</tspan></text>
  <text class="cls-6" transform="translate(344.08 236.55)"><tspan class="cls-7" x="0" y="0">P</tspan><tspan x="26.13" y="0">RE</tspan><tspan class="cls-11" x="77.27" y="0">P</tspan><tspan x="102.13" y="0">ÁR</tspan><tspan class="cls-9" x="156.15" y="0">A</tspan><tspan x="182.21" y="0">TE </tspan><tspan class="cls-3" x="238.71" y="0">C</tspan><tspan x="264.7" y="0">ON </tspan><tspan class="cls-4" x="335.07" y="0">C</tspan><tspan x="361.05" y="0">ONFIANZA</tspan></text>
</svg>