<svg xmlns="http://www.w3.org/2000/svg" viewBox="0 0 192 192">
  <rect width="192" height="192" rx="40" fill="#F1EBDE"/>
  <rect x="12" y="12" width="168" height="168" rx="32" fill="#7E9A77"/>
  <!-- Laurel left -->
  <ellipse cx="60" cy="96" rx="18" ry="8" fill="#566F50" transform="rotate(-30 60 96)"/>
  <ellipse cx="50" cy="115" rx="18" ry="8" fill="#566F50" transform="rotate(-50 50 115)"/>
  <ellipse cx="48" cy="78" rx="18" ry="8" fill="#566F50" transform="rotate(-10 48 78)"/>
  <!-- Laurel right -->
  <ellipse cx="132" cy="96" rx="18" ry="8" fill="#566F50" transform="rotate(30 132 96)"/>
  <ellipse cx="142" cy="115" rx="18" ry="8" fill="#566F50" transform="rotate(50 142 115)"/>
  <ellipse cx="144" cy="78" rx="18" ry="8" fill="#566F50" transform="rotate(10 144 78)"/>
  <!-- Book -->
  <rect x="74" y="70" width="20" height="52" rx="3" fill="#F1EBDE"/>
  <rect x="98" y="70" width="20" height="52" rx="3" fill="#ECE4D4"/>
  <line x1="96" y1="70" x2="96" y2="122" stroke="#D5C9B5" stroke-width="2"/>
  <!-- Cap -->
  <polygon points="96,52 72,64 96,76 120,64" fill="#F1EBDE"/>
  <rect x="88" y="76" width="16" height="8" rx="2" fill="#F1EBDE"/>
  <!-- C letter -->
  <text x="96" y="150" text-anchor="middle" font-family="Georgia,serif" font-size="28" font-weight="bold" fill="#F1EBDE">CERTUS</text>
</svg>
